<?xml version="1.0" standalone="no"?>
<!DOCTYPE svg PUBLIC "-//W3C//DTD SVG 20010904//EN"
 "http://www.w3.org/TR/2001/REC-SVG-20010904/DTD/svg10.dtd">
<svg version="1.0" xmlns="http://www.w3.org/2000/svg"
 width="205.000000pt" height="205.000000pt" viewBox="0 0 205.000000 205.000000"
 preserveAspectRatio="xMidYMid meet">
<metadata>
Created by potrace 1.11, written by Peter Selinger 2001-2013
</metadata>
<g transform="translate(0.000000,205.000000) scale(0.100000,-0.100000)"
fill="#000000" stroke="none">
<path d="M513 1988 c-246 -36 -425 -256 -417 -513 5 -148 67 -279 182 -386 31
-29 52 -49 45 -46 -25 15 -159 -145 -191 -228 -52 -136 -42 -313 26 -439 38
-72 137 -166 207 -200 94 -44 168 -59 266 -53 139 9 246 57 355 160 l52 48 61
-59 c103 -100 216 -147 361 -151 191 -4 371 102 454 268 103 206 65 432 -105
614 l-56 60 56 56 c104 103 150 205 157 345 10 201 -99 392 -270 474 -82 39
-139 52 -231 52 -150 1 -281 -55 -389 -165 l-45 -46 -60 57 c-76 72 -116 99
-183 123 -86 32 -185 42 -275 29z m249 -321 c109 -54 114 -41 -90 -246 l-180
-180 -36 39 c-42 46 -60 103 -60 185 2 182 191 287 366 202z m764 8 c82 -31
144 -125 144 -219 0 -64 -26 -138 -62 -180 l-33 -38 -178 176 c-97 96 -177
179 -177 184 0 13 40 47 77 66 70 35 155 39 229 11z m-311 -444 c150 -149 173
-176 163 -189 -15 -18 -309 -312 -331 -330 -11 -10 -47 21 -190 164 -98 97
-177 179 -177 182 0 12 344 352 353 349 4 -1 86 -80 182 -176z m-541 -537
l177 -176 -23 -25 c-39 -42 -97 -66 -175 -71 -64 -4 -79 -1 -128 22 -136 67
-172 251 -74 384 17 23 34 42 39 42 4 0 87 -79 184 -176z m969 91 c17 -32 22
-58 22 -126 0 -78 -3 -90 -30 -135 -57 -91 -181 -130 -292 -93 -50 17 -123 63
-123 78 0 4 79 87 176 184 l177 178 24 -23 c14 -13 35 -41 46 -63z"/>
</g>
</svg>
